<?xml version="1.0" encoding="UTF-8"?> <svg xmlns="http://www.w3.org/2000/svg" width="100" height="100" viewBox="0 0 512 512" fill="none"> <path d="M358.565 129.532C358.565 120.062 350.858 112.355 341.387 112.355C331.917 112.355 324.21 120.062 324.21 129.532C324.21 139.003 331.917 146.71 341.387 146.71C350.858 146.71 358.565 139.003 358.565 129.532ZM335.661 129.532C335.661 126.372 338.226 123.806 341.387 123.806C344.548 123.806 347.113 126.372 347.113 129.532C347.113 132.693 344.548 135.258 341.387 135.258C338.226 135.258 335.661 132.693 335.661 129.532Z" fill="#a0a0a0"></path> <path d="M387.194 146.71C377.723 146.71 370.016 154.417 370.016 163.887C370.016 173.358 377.723 181.065 387.194 181.065C396.664 181.065 404.371 173.358 404.371 163.887C404.371 154.417 396.664 146.71 387.194 146.71ZM387.194 169.613C384.033 169.613 381.468 167.048 381.468 163.887C381.468 160.726 384.033 158.161 387.194 158.161C390.354 158.161 392.919 160.726 392.919 163.887C392.919 167.048 390.354 169.613 387.194 169.613Z" fill="#a0a0a0"></path> <path d="M336.697 177.924L382.528 109.22L392.055 115.575L346.225 184.28L336.697 177.924Z" fill="#a0a0a0"></path> <path d="M335.661 284.129H312.758C303.288 284.129 295.581 291.836 295.581 301.306V392.919C295.581 402.39 303.288 410.097 312.758 410.097H335.661C345.132 410.097 352.839 402.39 352.839 392.919V301.306C352.839 291.836 345.132 284.129 335.661 284.129ZM341.387 392.919C341.387 396.08 338.822 398.645 335.661 398.645H312.758C309.597 398.645 307.032 396.08 307.032 392.919V301.306C307.032 298.146 309.597 295.581 312.758 295.581H335.661C338.822 295.581 341.387 298.146 341.387 301.306V392.919Z" fill="#a0a0a0"></path> <path d="M266.952 352.839H244.048C234.578 352.839 226.871 360.546 226.871 370.016V392.919C226.871 402.39 234.578 410.097 244.048 410.097H266.952C276.422 410.097 284.129 402.39 284.129 392.919V370.016C284.129 360.546 276.422 352.839 266.952 352.839ZM272.677 392.919C272.677 396.08 270.112 398.645 266.952 398.645H244.048C240.888 398.645 238.323 396.08 238.323 392.919V370.016C238.323 366.855 240.888 364.29 244.048 364.29H266.952C270.112 364.29 272.677 366.855 272.677 370.016V392.919Z" fill="#a0a0a0"></path> <path d="M266.952 284.129H244.048C234.578 284.129 226.871 291.836 226.871 301.306V324.21C226.871 333.68 234.578 341.387 244.048 341.387H266.952C276.422 341.387 284.129 333.68 284.129 324.21V301.306C284.129 291.836 276.422 284.129 266.952 284.129ZM272.677 324.21C272.677 327.37 270.112 329.935 266.952 329.935H244.048C240.888 329.935 238.323 327.37 238.323 324.21V301.306C238.323 298.146 240.888 295.581 244.048 295.581H266.952C270.112 295.581 272.677 298.146 272.677 301.306V324.21Z" fill="#a0a0a0"></path> <path d="M266.952 215.419H244.048C234.578 215.419 226.871 223.126 226.871 232.597V255.5C226.871 264.971 234.578 272.677 244.048 272.677H266.952C276.422 272.677 284.129 264.971 284.129 255.5V232.597C284.129 223.126 276.422 215.419 266.952 215.419ZM272.677 255.5C272.677 258.661 270.112 261.226 266.952 261.226H244.048C240.888 261.226 238.323 258.661 238.323 255.5V232.597C238.323 229.436 240.888 226.871 244.048 226.871H266.952C270.112 226.871 272.677 229.436 272.677 232.597V255.5Z" fill="#a0a0a0"></path> <path d="M198.242 215.419H175.339C165.868 215.419 158.161 223.126 158.161 232.597V255.5C158.161 264.971 165.868 272.677 175.339 272.677H198.242C207.712 272.677 215.419 264.971 215.419 255.5V232.597C215.419 223.126 207.712 215.419 198.242 215.419ZM203.968 255.5C203.968 258.661 201.403 261.226 198.242 261.226H175.339C172.178 261.226 169.613 258.661 169.613 255.5V232.597C169.613 229.436 172.178 226.871 175.339 226.871H198.242C201.403 226.871 203.968 229.436 203.968 232.597V255.5Z" fill="#a0a0a0"></path> <path d="M295.581 232.597V255.5C295.581 264.971 303.288 272.677 312.758 272.677H335.661C345.132 272.677 352.839 264.971 352.839 255.5V232.597C352.839 223.126 345.132 215.419 335.661 215.419H312.758C303.288 215.419 295.581 223.126 295.581 232.597ZM341.387 232.597V255.5C341.387 258.661 338.822 261.226 335.661 261.226H312.758C309.597 261.226 307.032 258.661 307.032 255.5V232.597C307.032 229.436 309.597 226.871 312.758 226.871H335.661C338.822 226.871 341.387 229.436 341.387 232.597Z" fill="#a0a0a0"></path> <path d="M433 146.71C433 108.822 402.178 78 364.29 78H163.887C148.101 78 135.258 90.843 135.258 106.629V307.324C103.205 310.227 78 337.219 78 370.016C78 404.743 106.257 433 140.984 433H347.113C362.899 433 375.742 420.157 375.742 404.371V214.383C408.184 208.909 433 180.687 433 146.71V146.71ZM89.4516 370.016C89.4516 341.599 112.567 318.484 140.984 318.484C169.401 318.484 192.516 341.599 192.516 370.016C192.516 398.433 169.401 421.548 140.984 421.548C112.567 421.548 89.4516 398.433 89.4516 370.016ZM169.613 313.983V301.306C169.613 298.146 172.178 295.581 175.339 295.581H198.242C201.403 295.581 203.968 298.146 203.968 301.306V324.21C203.968 327.37 201.403 329.935 198.242 329.935H189.533C184.076 323.345 177.285 317.923 169.613 313.983ZM364.29 404.371C364.29 413.841 356.583 421.548 347.113 421.548H177.085C193.312 410.143 203.968 391.316 203.968 370.016C203.968 359.704 201.425 349.987 197.017 341.387H198.242C207.712 341.387 215.419 333.68 215.419 324.21V301.306C215.419 291.836 207.712 284.129 198.242 284.129H175.339C165.868 284.129 158.161 291.836 158.161 301.306V309.471C154.468 308.424 150.643 307.679 146.71 307.319V106.629C146.71 97.1585 154.417 89.4516 163.887 89.4516H326.391C321.519 92.6867 317.121 96.5631 313.222 100.903H169.613C163.297 100.903 158.161 106.039 158.161 112.355V181.065C158.161 187.38 163.297 192.516 169.613 192.516H313.222C325.807 206.533 344.01 215.419 364.29 215.419V404.371ZM304.874 112.355C298.999 122.472 295.581 134.187 295.581 146.71C295.581 159.232 298.999 170.947 304.874 181.065H169.613V112.355H304.874ZM364.29 203.968C332.718 203.968 307.032 178.282 307.032 146.71C307.032 115.138 332.718 89.4516 364.29 89.4516C395.862 89.4516 421.548 115.138 421.548 146.71C421.548 178.282 395.862 203.968 364.29 203.968Z" fill="#a0a0a0"></path> <path d="M146.824 397.527H131.297V407H116.648V397.527H106.736V385.662H116.648V381.951H106.736V370.086H116.648V335.906H144.285C149.624 335.906 154.311 336.867 158.348 338.787C162.384 340.708 165.509 343.458 167.723 347.039C169.969 350.587 171.092 354.64 171.092 359.197C171.092 366.229 168.699 371.779 163.914 375.848C159.161 379.917 152.537 381.951 144.041 381.951H131.297V385.662H146.824V397.527ZM131.297 370.086H143.943C152.146 370.086 156.248 366.489 156.248 359.295C156.248 355.877 155.206 353.126 153.123 351.043C151.04 348.927 148.159 347.853 144.48 347.82H131.297V370.086Z" fill="#a0a0a0"></path> </svg> 