<?xml version="1.0" encoding="UTF-8"?> <svg xmlns="http://www.w3.org/2000/svg" width="100" height="100" viewBox="0 0 512 512" fill="none"> <path d="M426 267.446C426 249.564 411.452 235.016 393.57 235.016H382.53H334.771C343.877 218.532 348.719 202.974 348.719 181.486V178.014C348.719 178.012 348.719 178.01 348.719 178.008C348.716 166.45 344.249 155.551 336.138 147.32C328.033 139.093 317.211 134.462 305.666 134.282C305.556 134.28 305.445 134.279 305.335 134.279C294.145 134.279 284.36 143.179 283.441 154.268C279.06 207.148 228.106 234.399 194.022 250.974V245.502C194.022 239.786 189.387 235.152 183.672 235.152H95.35C89.6337 235.152 85 239.786 85 245.502V422.144C85 427.86 89.6344 432.494 95.35 432.494H161.591C174.278 432.494 185.28 425.167 190.606 414.525C227.469 430.537 259.494 432.623 296.271 432.623C302.553 432.623 308.98 432.562 315.587 432.499C322.894 432.431 330.449 432.359 338.369 432.359H371.093C388.976 432.359 403.524 417.81 403.524 399.929C403.524 393.916 401.879 388.281 399.016 383.448C408.334 377.744 414.564 367.471 414.564 355.768C414.564 349.756 412.92 344.121 410.056 339.288C419.374 333.583 425.604 323.31 425.604 311.608C425.604 303.186 422.376 295.506 417.094 289.735C422.607 283.919 426 276.073 426 267.446ZM173.321 400.063C173.321 406.531 168.059 411.793 161.591 411.793H149.861V377.983C149.861 372.266 145.226 367.633 139.511 367.633C133.795 367.633 129.16 372.267 129.16 377.983V411.793H105.701V255.851H173.322V400.063H173.321ZM371.489 299.877H382.53H393.174C399.642 299.877 404.904 305.139 404.904 311.607C404.904 318.075 399.642 323.337 393.174 323.337H382.53H382.134H371.489C365.773 323.337 361.139 327.972 361.139 333.687C361.139 339.403 365.774 344.037 371.489 344.037H382.134C388.602 344.037 393.864 349.299 393.864 355.767C393.864 362.236 388.602 367.498 382.134 367.498H371.093C365.377 367.498 360.743 372.132 360.743 377.848C360.743 383.563 365.378 388.198 371.093 388.198C377.562 388.198 382.824 393.46 382.824 399.928C382.824 406.396 377.562 411.658 371.093 411.658H338.369C330.351 411.658 322.746 411.73 315.391 411.8C269.253 412.236 235.356 412.558 194.157 393.429V273.899H194.157C195.234 273.378 196.339 272.845 197.467 272.301C215.459 263.626 240.101 251.746 261.289 233.752C287.226 211.722 301.621 185.555 304.071 155.976C304.1 155.624 304.775 154.978 305.331 154.978C305.334 154.978 305.338 154.978 305.342 154.978C317.846 155.173 328.019 165.51 328.019 178.02V181.486C328.019 203.001 322.408 216.614 310.672 235.016H294.209C288.492 235.016 283.859 239.65 283.859 245.366C283.859 251.082 288.493 255.716 294.209 255.716H316.363C316.373 255.716 316.383 255.716 316.394 255.716H382.53H393.57C400.038 255.716 405.3 260.977 405.3 267.446C405.3 273.914 400.038 279.176 393.57 279.176H382.53H371.489C365.773 279.176 361.139 283.81 361.139 289.526C361.139 295.242 365.774 299.877 371.489 299.877Z" fill="#a0a0a0"></path> <path d="M404.474 156.49H382.394C376.678 156.49 372.044 161.125 372.044 166.84C372.044 172.556 376.678 177.19 382.394 177.19H404.474C410.191 177.19 414.824 172.556 414.824 166.84C414.824 161.125 410.191 156.49 404.474 156.49Z" fill="#a0a0a0"></path> <path d="M249.912 156.49H227.832C222.116 156.49 217.482 161.125 217.482 166.84C217.482 172.556 222.117 177.19 227.832 177.19H249.912C255.628 177.19 260.262 172.556 260.262 166.84C260.262 161.125 255.628 156.49 249.912 156.49Z" fill="#a0a0a0"></path> <path d="M291.996 104.299L280.956 85.177C278.098 80.2265 271.768 78.5302 266.818 81.3891C261.867 84.2473 260.172 90.5773 263.03 95.5271L274.07 114.649C275.987 117.97 279.466 119.826 283.043 119.826C284.798 119.826 286.578 119.379 288.208 118.437C293.158 115.58 294.854 109.25 291.996 104.299Z" fill="#a0a0a0"></path> <path d="M365.489 81.389C360.538 78.5295 354.208 80.2272 351.351 85.177L340.311 104.299C337.452 109.249 339.148 115.58 344.099 118.437C345.728 119.379 347.508 119.826 349.264 119.826C352.841 119.826 356.321 117.969 358.237 114.649L369.277 95.527C372.135 90.5772 370.439 84.2472 365.489 81.389Z" fill="#a0a0a0"></path> </svg> 