<?xml version="1.0" encoding="UTF-8"?> <svg xmlns="http://www.w3.org/2000/svg" width="100" height="100" viewBox="0 0 512 512" fill="#c1c1c1"> <path d="M493.656 274.344L394.344 175.032C392.121 172.795 389.475 171.021 386.561 169.814C383.647 168.607 380.522 167.99 377.368 168H240V184H280V304H296V184H377.368C378.42 183.999 379.462 184.206 380.433 184.608C381.405 185.01 382.288 185.6 383.032 186.344L396.688 200H360C355.757 200 351.687 201.686 348.686 204.686C345.686 207.687 344 211.757 344 216V288C344 292.244 345.686 296.313 348.686 299.314C351.687 302.314 355.757 304 360 304H480V368C480 370.122 479.157 372.157 477.657 373.657C476.157 375.157 474.122 376 472 376H455.36C453.447 362.681 446.797 350.498 436.628 341.686C426.46 332.874 413.456 328.023 400 328.023C386.544 328.023 373.54 332.874 363.372 341.686C353.203 350.498 346.553 362.681 344.64 376H231.36C229.447 362.681 222.797 350.498 212.628 341.686C202.46 332.874 189.456 328.023 176 328.023C162.544 328.023 149.54 332.874 139.372 341.686C129.203 350.498 122.553 362.681 120.64 376H104C101.878 376 99.8434 375.157 98.3431 373.657C96.8429 372.157 96 370.122 96 368V296H80V368C80 374.365 82.5286 380.47 87.0294 384.971C91.5303 389.472 97.6348 392 104 392H120.64C122.386 404.164 128.097 415.413 136.888 424H16V440H400C413.452 439.974 426.446 435.111 436.61 426.299C446.773 417.487 453.428 405.313 455.36 392H472C478.365 392 484.47 389.472 488.971 384.971C493.471 380.47 496 374.365 496 368V280C496 277.879 495.156 275.844 493.656 274.344V274.344ZM136 384C136 376.089 138.346 368.355 142.741 361.777C147.136 355.199 153.384 350.072 160.693 347.045C168.002 344.017 176.044 343.225 183.804 344.769C191.563 346.312 198.69 350.122 204.284 355.716C209.878 361.31 213.688 368.437 215.231 376.197C216.775 383.956 215.983 391.998 212.955 399.307C209.928 406.617 204.801 412.864 198.223 417.259C191.645 421.654 183.911 424 176 424C165.395 423.987 155.228 419.769 147.73 412.27C140.231 404.772 136.013 394.605 136 384V384ZM215.112 424C223.903 415.413 229.614 404.164 231.36 392H344.64C346.386 404.164 352.097 415.413 360.888 424H215.112ZM400 424C392.089 424 384.355 421.654 377.777 417.259C371.199 412.864 366.072 406.617 363.045 399.307C360.017 391.998 359.225 383.956 360.769 376.197C362.312 368.437 366.122 361.31 371.716 355.716C377.31 350.122 384.437 346.312 392.196 344.769C399.956 343.225 407.998 344.017 415.307 347.045C422.616 350.072 428.864 355.199 433.259 361.777C437.654 368.355 440 376.089 440 384C439.987 394.605 435.769 404.772 428.27 412.27C420.772 419.769 410.605 423.987 400 424ZM360 288V216H412.688L480 283.312V288H360Z" fill="#a0a0a0"></path> <path d="M184 376H168V392H184V376Z" fill="#a0a0a0"></path> <path d="M408 376H392V392H408V376Z" fill="#a0a0a0"></path> <path d="M56 352H16V368H56V352Z" fill="#a0a0a0"></path> <path d="M56 320H32V336H56V320Z" fill="#a0a0a0"></path> <path d="M120 280C140.569 280 160.677 273.901 177.779 262.473C194.882 251.045 208.212 234.803 216.083 215.799C223.955 196.796 226.015 175.885 222.002 155.711C217.989 135.537 208.084 117.006 193.539 102.461C178.994 87.9163 160.463 78.0112 140.289 73.9984C120.115 69.9855 99.2044 72.0451 80.2009 79.9166C61.1974 87.7881 44.9548 101.118 33.5272 118.221C22.0995 135.323 16 155.431 16 176C16.0318 203.573 26.9991 230.007 46.496 249.504C65.9929 269.001 92.4272 279.968 120 280ZM120 88C137.405 88 154.419 93.1612 168.89 102.831C183.362 112.5 194.641 126.244 201.301 142.324C207.962 158.404 209.705 176.098 206.309 193.168C202.914 210.238 194.532 225.918 182.225 238.225C169.918 250.532 154.238 258.914 137.168 262.309C120.098 265.705 102.404 263.962 86.3239 257.301C70.244 250.641 56.5002 239.362 46.8307 224.89C37.1611 210.419 32 193.405 32 176C32.0275 152.669 41.3078 130.302 57.805 113.805C74.3022 97.3078 96.6694 88.0276 120 88V88Z" fill="#a0a0a0"></path> <path d="M352 320H320V336H352V320Z" fill="#a0a0a0"></path> <g clip-path="url(#clip0)"> <path d="M122.765 131.08C122.843 131.08 122.919 131.079 122.996 131.079C134.229 131.079 144.755 135.422 152.654 143.321C160.618 151.286 164.975 161.901 164.921 173.213C164.909 175.758 166.963 177.832 169.508 177.844C169.516 177.844 169.523 177.844 169.531 177.844C172.066 177.844 174.127 175.795 174.139 173.256C174.205 159.466 168.89 146.52 159.173 136.803C149.531 127.161 136.693 121.861 122.997 121.861C122.913 121.861 122.828 121.861 122.744 121.861C120.198 121.873 118.145 123.947 118.157 126.492C118.169 129.03 120.23 131.08 122.765 131.08Z" fill="#a0a0a0"></path> <path d="M178.989 212.081C178.824 207.517 176.923 203.257 173.635 200.087C167.198 193.88 161.805 190.297 156.662 188.811C149.575 186.762 143.012 188.625 137.155 194.346C137.146 194.354 137.137 194.363 137.128 194.372L130.89 200.563C127.016 198.387 119.484 193.597 111.247 185.359L110.64 184.753C102.457 176.569 97.6363 168.995 95.4431 165.105L101.629 158.872C101.637 158.864 101.646 158.855 101.655 158.846C107.375 152.989 109.238 146.425 107.19 139.339C105.704 134.197 102.121 128.803 95.9131 122.366C92.743 119.078 88.4834 117.177 83.9194 117.012C79.3564 116.848 74.9699 118.437 71.5707 121.488L71.4384 121.607C71.3768 121.662 71.3169 121.719 71.2586 121.777C64.492 128.544 60.9451 138.016 61.0009 149.171C61.0954 168.12 71.5101 189.791 88.8598 207.141C88.8743 207.155 88.8886 207.169 88.9031 207.184C92.1647 210.441 95.8679 213.663 99.9108 216.764C101.931 218.313 104.824 217.93 106.373 215.91C107.922 213.89 107.54 210.997 105.52 209.448C101.778 206.579 98.3662 203.609 95.3786 200.622C95.3643 200.607 95.35 200.593 95.3355 200.579C79.6901 184.916 70.3022 165.685 70.2194 149.125C70.1766 140.534 72.7608 133.363 77.6938 128.38L77.729 128.348C81.0796 125.341 86.1522 125.524 89.2774 128.764C101.211 141.14 100.347 146.983 95.0739 152.39L86.5295 160.999C85.1896 162.349 84.8164 164.383 85.5903 166.121C85.8072 166.608 91.0545 178.204 104.123 191.273L104.73 191.879C117.797 204.946 129.393 210.193 129.88 210.41C131.618 211.184 133.652 210.811 135.002 209.471L143.609 200.928C149.018 195.654 154.86 194.789 167.237 206.723C170.477 209.848 170.66 214.921 167.654 218.271L167.621 218.307C162.678 223.2 155.584 225.782 147.086 225.782C147.016 225.782 146.946 225.782 146.876 225.781C140.084 225.747 132.218 223.886 124.131 220.397C121.794 219.389 119.081 220.466 118.073 222.804C117.065 225.141 118.142 227.854 120.48 228.862C129.828 232.894 138.693 234.959 146.83 235C146.916 235 147.002 235.001 147.088 235.001C158.131 235 167.51 231.456 174.223 224.742C174.282 224.684 174.339 224.624 174.394 224.563L174.513 224.43C177.564 221.031 179.153 216.646 178.989 212.081Z" fill="#a0a0a0"></path> <path d="M146.148 149.853C141.204 144.909 136.459 143.597 134.178 142.966C131.724 142.287 129.185 143.726 128.507 146.18C127.828 148.634 129.267 151.173 131.721 151.851C133.586 152.367 136.404 153.146 139.63 156.372C142.735 159.477 143.56 162.28 144.106 164.135L144.172 164.361C144.765 166.365 146.601 167.663 148.59 167.663C149.023 167.663 149.464 167.602 149.901 167.472C152.341 166.75 153.735 164.185 153.012 161.744L152.949 161.533C152.238 159.117 150.915 154.62 146.148 149.853Z" fill="#a0a0a0"></path> </g> <defs> <clipPath id="clip0"> <rect x="61" y="117" width="118" height="118" fill="white"></rect> </clipPath> </defs> </svg> 