<?xml version="1.0" encoding="UTF-8"?> <svg xmlns="http://www.w3.org/2000/svg" width="100" height="100" viewBox="0 0 512 512" fill="none"> <path d="M128.614 362.768C123.153 362.768 117.902 364.136 113.244 366.705C88.7071 335.139 75.239 295.926 75.239 255.754C75.239 156.246 155.904 75.2933 255.059 75.2933C267.113 75.2933 279.162 76.497 290.871 78.8717C294.99 79.708 299.014 77.0317 299.848 72.8918C300.681 68.7518 298.014 64.7194 293.889 63.8801C281.189 61.3053 268.125 60 255.059 60C202.958 60 153.973 80.3622 117.131 117.335C80.2899 154.308 60 203.467 60 255.754C60 299.737 74.8818 342.66 101.976 377.07C98.4874 382.3 96.6123 388.447 96.6123 394.884C96.6123 403.463 99.9428 411.527 105.988 417.591C112.03 423.658 120.066 427 128.614 427C137.162 427 145.199 423.658 151.244 417.591C157.289 411.527 160.616 403.46 160.616 394.881C160.616 386.306 157.289 378.238 151.244 372.174C145.199 366.108 137.162 362.768 128.614 362.768V362.768ZM140.466 406.778C137.302 409.956 133.091 411.707 128.614 411.707C124.138 411.707 119.929 409.956 116.762 406.778C113.595 403.6 111.851 399.377 111.851 394.884C111.851 390.389 113.595 386.165 116.762 382.987C119.926 379.809 124.138 378.061 128.614 378.061C133.091 378.061 137.299 379.812 140.466 382.987C143.633 386.165 145.377 390.389 145.377 394.884C145.377 399.377 143.633 403.6 140.466 406.778V406.778Z" fill="#a0a0a0"></path> <path d="M408.956 133.921C417.252 121.451 415.919 104.401 404.947 93.406C398.893 87.3424 390.845 84 382.284 84C373.724 84 365.675 87.3424 359.622 93.406C353.568 99.4725 350.235 107.537 350.235 116.116C350.235 124.694 353.568 132.759 359.622 138.826C365.675 144.892 373.724 148.232 382.284 148.232C387.754 148.232 393.012 146.864 397.677 144.295C422.25 175.864 435.738 215.074 435.738 255.246C435.738 354.754 354.954 435.707 255.652 435.707C243.699 435.707 231.747 434.527 220.13 432.197C215.999 431.37 211.978 434.055 211.149 438.195C210.324 442.338 213.003 446.364 217.135 447.195C229.735 449.719 242.695 451 255.652 451C307.831 451 356.888 430.638 393.784 393.665C430.68 356.692 451 307.533 451 255.246C451 211.26 436.093 168.334 408.956 133.921V133.921ZM370.415 128.013C367.243 124.835 365.497 120.611 365.497 116.116C365.497 111.623 367.243 107.4 370.415 104.222C373.583 101.044 377.801 99.2933 382.284 99.2933C386.767 99.2933 390.985 101.044 394.157 104.222C400.7 110.781 400.7 121.454 394.157 128.013C390.985 131.188 386.767 132.939 382.284 132.939C377.798 132.939 373.583 131.188 370.415 128.013Z" fill="#a0a0a0"></path> <path d="M223.873 387.335C223.873 391.569 227.307 395 231.537 395H279.46C283.693 395 287.124 391.569 287.124 387.335V372.476C297.201 369.763 306.835 365.769 315.888 360.553L326.379 371.044C327.816 372.482 329.765 373.29 331.8 373.29C333.83 373.29 335.782 372.482 337.219 371.041L371.091 337.142C374.082 334.148 374.082 329.295 371.091 326.304L360.613 315.825C365.828 306.771 369.822 297.136 372.534 287.058H387.336C391.569 287.058 395 283.626 395 279.393V231.467C395 227.233 391.569 223.802 387.336 223.802H372.531C369.819 213.727 365.828 204.092 360.613 195.038L371.034 184.615C372.472 183.178 373.28 181.226 373.28 179.193C373.277 177.16 372.469 175.208 371.031 173.771L337.132 139.896C334.142 136.905 329.289 136.905 326.295 139.899L315.888 150.309C306.835 145.093 297.201 141.099 287.124 138.387V123.665C287.124 119.431 283.693 116 279.46 116H231.537C227.307 116 223.873 119.431 223.873 123.665V138.39C213.799 141.099 204.165 145.093 195.112 150.309L184.702 139.899C181.711 136.908 176.858 136.905 173.865 139.896L139.969 173.774C138.528 175.211 137.72 177.16 137.72 179.193C137.72 181.226 138.528 183.178 139.966 184.615L150.387 195.038C145.172 204.092 141.178 213.724 138.466 223.802H123.691C119.458 223.802 116.027 227.233 116.027 231.464L116 279.39C115.997 281.423 116.805 283.375 118.242 284.812C119.679 286.249 121.628 287.058 123.664 287.058H138.466C141.178 297.136 145.172 306.771 150.387 315.825L139.909 326.304C136.918 329.295 136.915 334.148 139.909 337.142L173.781 371.041C175.218 372.479 177.167 373.29 179.2 373.29H179.203C181.235 373.29 183.184 372.482 184.621 371.044L195.109 360.553C204.165 365.769 213.799 369.763 223.873 372.476V387.335ZM198.114 344.433C195.082 342.472 191.091 342.897 188.534 345.451L179.203 354.784L156.165 331.726L165.488 322.4C168.042 319.846 168.467 315.855 166.506 312.822C159.557 302.067 154.671 290.279 151.989 277.782C151.228 274.252 148.109 271.728 144.495 271.728H131.331L131.349 239.131H144.495C148.109 239.131 151.228 236.61 151.989 233.077C154.671 220.583 159.557 208.795 166.506 198.041C168.467 195.008 168.042 191.017 165.488 188.463L156.225 179.196L179.28 156.157L188.534 165.414C191.091 167.968 195.079 168.39 198.114 166.432C208.865 159.483 220.652 154.597 233.148 151.914C236.678 151.153 239.202 148.031 239.202 144.42V131.33H271.795V144.417C271.795 148.031 274.316 151.153 277.849 151.911C290.342 154.597 302.132 159.48 312.883 166.429C315.915 168.39 319.906 167.968 322.46 165.411L331.717 156.157L354.772 179.196L345.509 188.46C342.952 191.017 342.53 195.008 344.491 198.041C351.44 208.795 356.323 220.583 359.008 233.077C359.766 236.61 362.888 239.131 366.502 239.131H379.672V271.728H366.502C362.888 271.728 359.769 274.252 359.008 277.782C356.326 290.276 351.44 302.067 344.491 312.819C342.53 315.855 342.955 319.846 345.509 322.4L354.832 331.723L331.794 354.781L322.463 345.451C319.906 342.894 315.915 342.472 312.883 344.433C302.129 351.382 290.342 356.266 277.849 358.951C274.316 359.712 271.795 362.832 271.795 366.446V379.67H239.202V366.446C239.202 362.835 236.678 359.712 233.148 358.951C220.655 356.269 208.868 351.382 198.114 344.433V344.433Z" fill="#a0a0a0"></path> <path d="M319 255.5C319 220.485 290.515 192 255.5 192C220.485 192 192 220.485 192 255.5C192 290.515 220.485 319 255.5 319C290.515 319 319 290.515 319 255.5ZM207.37 255.5C207.37 228.96 228.96 207.37 255.5 207.37C282.04 207.37 303.63 228.963 303.63 255.5C303.63 282.037 282.04 303.63 255.5 303.63C228.96 303.63 207.37 282.04 207.37 255.5Z" fill="#a0a0a0"></path> <path d="M326 89C328.106 89 330.169 88.1977 331.656 86.804C333.144 85.4015 334 83.4691 334 81.4956C334 79.5339 333.147 77.5985 331.656 76.196C330.169 74.8023 328.106 74 326 74C323.888 74 321.834 74.8023 320.347 76.196C318.856 77.5985 318 79.5251 318 81.4956C318 83.4749 318.856 85.4015 320.347 86.804C321.834 88.1977 323.888 89 326 89Z" fill="#a0a0a0"></path> <path d="M185.5 422C183.528 422 181.592 422.803 180.197 424.197C178.803 425.592 178 427.528 178 429.5C178 431.48 178.803 433.408 180.197 434.803C181.592 436.197 183.528 437 185.5 437C187.472 437 189.408 436.197 190.803 434.803C192.197 433.408 193 431.472 193 429.5C193 427.528 192.197 425.592 190.803 424.197C189.408 422.803 187.472 422 185.5 422Z" fill="#a0a0a0"></path> </svg> 